<?xml version="1.0"?><svg xmlns="http://www.w3.org/2000/svg" xmlns:xlink="http://www.w3.org/1999/xlink" version="1.1" id="Layer_1" viewBox="0 0 32 32" style="enable-background:new 0 0 32 32;" xml:space="preserve"><style type="text/css">
	.st0{fill:none;stroke:#000000;stroke-linecap:round;stroke-linejoin:round;stroke-miterlimit:10;}
</style><g><path class="st0" d="M29.5,10.5h-9.3c0.1-0.4,0.2-0.8,0.2-1.3c0-2.4-2-4.4-4.4-4.4s-4.4,2-4.4,4.4c0,0.4,0.1,0.9,0.2,1.3H2.5   c-0.4,0-0.6-0.6-0.2-0.8L15,1.5c0.6-0.4,1.3-0.4,1.9,0l12.8,8.2C30.1,9.9,29.9,10.5,29.5,10.5z"/><path class="st0" d="M19.4,27.6h-6.7V20c0-1.9,1.5-3.4,3.4-3.4l0,0c1.9,0,3.4,1.5,3.4,3.4v7.6H19.4z"/><path class="st0" d="M31,30.8H1v-2.2c0-0.6,0.4-1,1-1h28c0.6,0,1,0.4,1,1V30.8z"/><rect x="25" y="13.5" class="st0" width="3" height="11.1"/><rect x="4" y="13.5" class="st0" width="3" height="11.1"/><path class="st0" d="M8,27.6H3.1v-2.5c0-0.3,0.2-0.5,0.5-0.5h3.9c0.3,0,0.5,0.2,0.5,0.5V27.6z"/><path class="st0" d="M28.9,27.6H24v-2.5c0-0.3,0.2-0.5,0.5-0.5h3.9c0.3,0,0.5,0.2,0.5,0.5V27.6z"/><path class="st0" d="M7.5,13.5H3.6c-0.3,0-0.5-0.2-0.5-0.5v-2.5H8V13C8,13.3,7.8,13.5,7.5,13.5z"/><path class="st0" d="M28.4,13.5h-3.9c-0.3,0-0.5-0.2-0.5-0.5v-2.5h4.9V13C28.9,13.3,28.7,13.5,28.4,13.5z"/><g><g><path class="st0" d="M17.1,7.6h-0.9h-0.6c-0.4,0-0.8,0.3-0.8,0.8l0,0c0,0.4,0.3,0.8,0.8,0.8h0.7"/><path class="st0" d="M16.4,9.2c0.4,0,0.8,0.3,0.8,0.8l0,0c0,0.4-0.3,0.8-0.8,0.8h-1.5"/></g><line class="st0" x1="16.2" y1="6.8" x2="16.2" y2="7.6"/><line class="st0" x1="16.2" y1="10.8" x2="16.2" y2="11.6"/></g><circle class="st0" cx="16" cy="9.2" r="4.4"/></g></svg>